<svg height="auto" viewBox="0 0 2000 1000" xmlns="http://www.w3.org/2000/svg"><path d="M0 1000h228.571V459.246q0-20-20-20H20q-20 0-20 20ZM285.714 1000h228.572V655.4q0-20-20-20H305.714q-20 0-20 20ZM571.429 1000H800V443.886q0-20-20-20H591.429q-20 0-20 20ZM857.143 1000h228.571V207.262q0-20-20-20H877.143q-20 0-20 20ZM1142.857 1000h228.572V785.002q0-20-20-20h-188.572q-20 0-20 20ZM1428.571 1000h228.572V275.784q0-20-20-20H1448.57q-20 0-20 20ZM1714.286 1000h228.571V743.1q0-20-20-20h-188.571q-20 0-20 20Z" fill="#961f16"/></svg>